<?xml version="1.0" standalone="no"?>
<!DOCTYPE svg PUBLIC "-//W3C//DTD SVG 20010904//EN"
 "http://www.w3.org/TR/2001/REC-SVG-20010904/DTD/svg10.dtd">
<svg version="1.0" xmlns="http://www.w3.org/2000/svg"
 width="300.000000pt" height="300.000000pt" viewBox="0 0 300.000000 300.000000"
 preserveAspectRatio="xMidYMid meet">
<metadata>
Created by potrace 1.10, written by Peter Selinger 2001-2011
</metadata>
<g transform="translate(0.000000,300.000000) scale(0.100000,-0.100000)"
fill="#000000" stroke="none">
<path d="M479 2993 c-8 -2 -31 -35 -49 -73 l-33 -69 -66 -7 c-36 -3 -74 -11
-83 -16 -33 -17 -21 -54 36 -108 l53 -51 -14 -76 c-14 -74 -14 -77 7 -97 l21
-21 72 37 72 38 72 -38 72 -37 21 21 c21 20 21 23 7 98 l-15 77 54 47 c40 35
54 54 54 74 0 35 -18 44 -101 53 l-66 7 -33 68 c-32 66 -47 80 -81 73z m47
-95 c10 -23 27 -50 38 -60 11 -10 16 -21 12 -25 -4 -4 -18 7 -32 25 -33 41
-64 42 -99 1 -14 -17 -29 -29 -32 -25 -4 3 2 14 13 24 11 10 28 37 38 60 11
23 24 42 31 42 7 0 20 -19 31 -42z m18 -120 c6 -4 26 -8 44 -8 17 0 32 -3 32
-6 0 -4 -14 -22 -30 -41 -22 -25 -29 -41 -25 -56 18 -62 18 -60 -1 -52 -71 29
-73 29 -110 12 -20 -10 -38 -16 -40 -14 -2 2 1 18 6 36 10 37 4 55 -29 85 -30
28 -26 36 19 36 38 0 42 3 62 45 l22 46 20 -38 c10 -21 24 -41 30 -45z m-174
27 c0 -3 -7 -17 -16 -31 -16 -24 -16 -27 5 -55 35 -47 17 -46 -26 1 -63 70
-63 73 -3 83 14 2 28 5 33 6 4 0 7 -1 7 -4z m335 -15 c3 -5 -13 -31 -37 -57
-23 -27 -44 -50 -45 -52 -2 -2 -6 -1 -10 3 -4 4 -3 10 3 14 6 4 16 17 23 30
10 19 10 28 -4 48 l-15 24 39 0 c22 0 43 -4 46 -10z m-315 -180 c0 -5 12 -16
27 -24 l27 -14 -34 -20 c-18 -12 -37 -19 -42 -16 -9 6 -11 45 -2 68 7 17 24
22 24 6z m234 -12 c16 -60 -9 -77 -55 -39 -23 18 -23 18 -2 25 12 4 24 13 27
21 8 22 23 18 30 -7z"/>
<path d="M2489 2993 c-8 -2 -30 -35 -49 -72 l-33 -69 -66 -7 c-83 -9 -101 -18
-101 -53 0 -20 14 -39 54 -74 l53 -47 -14 -77 c-14 -75 -14 -77 7 -98 l21 -21
71 38 71 38 73 -38 73 -38 22 21 c20 21 21 23 5 95 l-15 74 54 54 c58 56 70
92 38 110 -10 5 -48 12 -84 16 l-66 7 -33 68 c-32 66 -47 80 -81 73z m51 -103
c13 -27 27 -50 31 -50 4 0 10 -8 14 -17 3 -11 -8 -4 -27 15 -42 40 -71 41
-100 2 -12 -16 -26 -30 -31 -30 -5 0 -2 10 7 23 9 12 26 41 37 65 12 23 27 42
33 42 7 0 23 -22 36 -50z m48 -118 c23 -2 42 -6 42 -9 0 -3 -14 -21 -30 -40
-22 -25 -29 -41 -25 -56 18 -62 18 -60 -1 -52 -75 31 -74 31 -116 8 l-40 -22
6 27 c4 15 9 35 12 44 3 9 -8 31 -26 51 -16 19 -30 37 -30 41 0 3 15 6 34 6
39 0 57 14 76 61 l14 32 20 -44 c20 -41 24 -44 64 -47z m-222 6 c-21 -29 -20
-31 10 -67 41 -49 13 -36 -40 18 -27 27 -45 54 -42 60 4 6 25 11 47 11 39 0
40 0 25 -22z m349 13 c6 -10 -74 -109 -88 -110 -5 -1 1 15 13 34 21 33 21 37
6 60 l-16 25 39 0 c22 0 42 -4 46 -9z m-78 -214 c5 -32 3 -37 -15 -37 -11 0
-30 8 -43 19 l-23 18 22 7 c11 4 24 16 27 28 9 27 24 11 32 -35z m-224 23 c9
-11 25 -20 34 -20 13 0 10 -6 -12 -20 -42 -27 -65 -26 -65 4 0 28 9 56 19 56
4 0 14 -9 24 -20z"/>
<path d="M1315 2969 c-90 -31 -102 -46 -67 -89 l17 -21 77 25 c189 64 389 10
530 -141 79 -86 128 -208 128 -323 l0 -55 -501 0 -502 0 6 80 c6 94 33 171 88
254 21 32 39 63 39 68 0 19 -38 45 -57 39 -21 -7 -94 -113 -117 -169 -21 -53
-46 -177 -46 -232 0 -39 -5 -50 -29 -71 -45 -38 -57 -85 -36 -141 17 -44 61
-83 96 -83 8 0 24 -19 36 -42 30 -63 97 -144 159 -191 l54 -42 0 -232 0 -233
-242 0 c-277 0 -301 -6 -354 -82 l-29 -41 -3 -266 c-4 -287 0 -318 45 -372 53
-63 81 -69 346 -69 l237 0 0 -55 c0 -90 44 -168 111 -195 27 -12 29 -16 29
-74 0 -84 14 -126 54 -165 62 -60 170 -60 232 0 40 39 54 81 54 165 0 59 1 62
30 74 69 28 114 113 108 200 l-3 50 62 0 c81 0 108 23 83 71 -10 18 -28 19
-626 19 l-616 0 -29 29 -29 29 0 265 0 265 26 31 26 31 788 0 787 0 27 -26 26
-27 0 -269 0 -270 -29 -29 c-27 -26 -36 -29 -98 -29 -73 0 -93 -10 -93 -45 0
-35 20 -45 90 -45 100 1 181 48 209 123 7 18 11 130 11 295 0 238 -2 271 -19
307 -44 95 -77 105 -361 105 l-230 0 0 233 0 232 54 42 c61 47 129 128 159
190 15 30 28 43 49 47 93 18 123 157 48 220 -26 22 -30 31 -30 78 -1 145 -68
303 -176 412 -90 91 -217 155 -324 162 l-75 6 30 -21 30 -21 -80 1 c-55 0 -73
3 -59 9 83 33 -27 41 -121 9z m769 -667 c-1 -1 -13 2 -28 8 -15 5 -62 11 -104
12 l-77 1 63 6 c54 5 67 10 84 34 l20 27 22 -42 c12 -24 21 -44 20 -46z
m-1084 28 c0 -4 -20 -11 -45 -17 l-44 -10 19 28 c11 15 20 33 20 40 0 7 10 3
25 -11 14 -13 25 -26 25 -30z m1068 -62 c16 -16 15 -43 -2 -57 -20 -16 -1113
-16 -1132 0 -17 14 -18 41 -2 57 17 17 1119 17 1136 0z m-1019 -118 l24 0 -20
-22 c-12 -13 -23 -31 -25 -41 -2 -14 -9 -10 -31 18 -30 38 -27 60 7 51 11 -3
32 -6 45 -6z m977 2 c8 -5 -1 -21 -26 -50 -24 -26 -36 -35 -33 -23 5 21 -28
61 -52 61 -8 0 -15 4 -15 9 0 10 111 14 126 3z m-93 -74 c-28 -50 -133 -150
-189 -180 -70 -38 -155 -58 -244 -58 -89 0 -174 20 -244 58 -56 30 -161 130
-189 180 l-18 32 451 0 451 0 -18 -32z m-132 -202 c-12 -13 -26 -40 -32 -61
l-11 -37 -23 22 c-18 17 -30 21 -52 15 -32 -8 -73 -42 -73 -62 0 -20 -14 -16
-40 12 -13 14 -30 25 -38 25 -33 0 -1 11 58 21 61 10 165 51 205 82 28 22 32
11 6 -17z m-465 -51 c27 -8 63 -15 79 -15 48 0 53 -12 17 -47 -32 -32 -33 -32
-41 -10 -21 55 -83 79 -123 48 -34 -27 -38 -26 -38 7 0 16 -7 37 -15 48 -24
32 -17 34 29 8 23 -13 65 -31 92 -39z m0 -51 c23 -6 24 -9 24 -111 0 -118 16
-160 70 -188 40 -21 109 -19 146 4 49 30 64 74 64 189 0 97 1 100 24 106 13 3
31 9 40 12 14 6 16 -16 16 -205 l0 -211 -220 0 -220 0 0 211 c0 189 2 211 16
205 9 -3 27 -9 40 -12z m216 -111 c-4 -91 -17 -123 -52 -123 -34 0 -48 32 -52
123 l-4 87 55 0 56 0 -3 -87z m-276 -332 c-5 -7 -76 -2 -76 6 0 2 8 15 18 28
l17 25 23 -26 c12 -14 20 -29 18 -33z m524 7 c0 -4 -18 -8 -41 -8 l-40 0 17
30 18 30 23 -22 c13 -12 23 -25 23 -30z m-533 -777 c-12 -15 -24 -28 -25 -31
-6 -9 -42 42 -36 51 3 6 23 9 45 7 l39 -2 -23 -25z m527 21 c2 -4 -6 -21 -19
-38 -15 -17 -24 -23 -25 -15 0 8 -9 24 -20 36 l-20 21 39 2 c22 2 42 -1 45 -6z
m-74 -103 c0 -54 -3 -64 -29 -90 l-29 -29 -162 0 -162 0 -29 29 c-26 26 -29
36 -29 90 l0 61 220 0 220 0 0 -61z m-302 -157 c9 -6 4 -16 -18 -37 -16 -16
-30 -23 -30 -16 0 6 -11 23 -25 36 l-24 25 42 0 c23 0 48 -4 55 -8z m230 -22
c-26 -36 -28 -36 -57 -6 -26 27 -18 34 42 35 l38 1 -23 -30z m-68 -93 c0 -59
-3 -71 -25 -92 -32 -33 -78 -33 -110 0 -22 21 -25 33 -25 92 l0 68 80 0 80 0
0 -68z m-63 -174 c-16 -16 -18 -16 -34 0 -16 16 -15 17 17 17 32 0 33 -1 17
-17z"/>
<path d="M1168 2842 c-38 -28 -47 -42 -26 -42 19 0 78 44 78 58 0 18 -10 15
-52 -16z"/>
<path d="M1650 2735 c-16 -20 -5 -62 19 -70 42 -13 72 25 51 65 -13 24 -52 27
-70 5z"/>
<path d="M1528 2569 c-22 -12 -23 -52 -4 -69 8 -6 25 -10 38 -8 30 4 38 56 12
75 -21 15 -24 15 -46 2z"/>
<path d="M1802 2573 c-41 -16 -32 -83 11 -83 45 0 62 43 29 73 -20 18 -20 18
-40 10z"/>
<path d="M182 2399 c-49 -87 -47 -86 -103 -92 -50 -6 -79 -24 -79 -49 0 -5 19
-30 43 -56 l43 -47 -9 -58 c-15 -90 17 -110 102 -62 l44 25 45 -25 c86 -48
117 -28 99 68 l-10 57 41 36 c69 59 53 103 -39 112 -50 5 -50 5 -80 63 -24 49
-34 59 -55 59 -17 0 -30 -9 -42 -31z m68 -59 c16 -39 55 -70 89 -70 51 0 54
-13 14 -63 -41 -50 -50 -54 -32 -13 11 23 10 30 -7 52 -10 14 -35 36 -56 47
-33 20 -38 20 -64 7 -41 -22 -86 -71 -80 -86 18 -44 15 -45 -25 -6 -47 46 -44
62 12 62 32 0 74 32 94 71 20 37 39 37 55 -1z m26 -106 c24 -6 24 -7 8 -25
-10 -12 -15 -29 -12 -49 3 -16 3 -30 2 -30 -2 0 -15 5 -29 12 -19 8 -31 8 -51
-1 -25 -11 -26 -10 -20 12 4 17 -1 33 -14 50 l-20 25 28 5 c18 4 33 16 41 34
l13 28 14 -27 c8 -15 26 -31 40 -34z m50 -171 c-3 -4 -22 1 -41 10 l-35 17 32
29 33 30 9 -40 c5 -22 6 -42 2 -46z m-165 52 l30 -24 -26 -17 c-29 -19 -60
-12 -51 12 3 9 6 24 6 35 0 25 6 24 41 -6z"/>
<path d="M2721 2372 l-30 -59 -55 -6 c-69 -7 -76 -11 -76 -46 0 -21 11 -39 41
-66 l42 -38 -10 -56 c-18 -94 13 -114 99 -66 l45 25 44 -25 c85 -48 118 -28
102 63 l-11 57 44 47 c24 26 44 51 44 56 0 25 -30 44 -80 50 -53 7 -55 8 -85
62 -24 43 -37 56 -57 58 -24 3 -31 -4 -57 -56z m84 -31 c20 -39 62 -71 94 -71
51 0 56 -14 20 -56 -18 -22 -35 -41 -36 -43 -9 -13 -12 10 -4 30 11 29 2 43
-51 83 -45 34 -68 31 -123 -17 l-38 -33 14 -48 c8 -28 26 -58 42 -72 l28 -23
-30 -16 c-49 -25 -53 -21 -46 39 7 52 6 55 -31 96 -41 45 -37 60 17 60 34 0
73 31 89 70 16 38 35 38 55 1z m5 -98 c6 -7 20 -13 32 -13 l21 0 -22 -24 c-16
-17 -20 -30 -15 -50 6 -26 5 -26 -20 -15 -20 9 -32 9 -51 1 -14 -7 -27 -12
-29 -12 -1 0 -1 14 2 30 3 20 -2 37 -12 49 -16 18 -15 19 9 25 14 4 31 18 37
32 11 24 13 25 25 7 7 -10 17 -24 23 -30z m72 -139 c5 -43 -11 -53 -47 -30
l-24 16 22 24 c31 34 44 31 49 -10z"/>
<path d="M573 2058 c-4 -7 -26 -46 -48 -88 l-40 -75 -86 -11 c-48 -6 -92 -14
-98 -18 -6 -4 -11 -19 -11 -34 0 -21 16 -41 66 -87 l66 -61 -17 -93 c-17 -92
-17 -93 3 -114 l21 -21 88 46 88 47 82 -45 c66 -36 86 -43 101 -35 29 16 31
29 15 125 l-15 88 67 68 c57 58 67 72 61 93 -7 28 -19 32 -117 42 -36 4 -71
10 -77 14 -5 3 -27 42 -49 86 -32 67 -43 81 -65 83 -14 2 -30 -3 -35 -10z m57
-79 c24 -46 22 -56 -8 -38 -17 10 -25 10 -46 -4 -14 -10 -26 -15 -26 -12 0 16
47 95 56 95 2 0 13 -18 24 -41z m38 -156 c9 -7 34 -13 57 -13 23 0 45 -3 49
-7 3 -4 -13 -26 -36 -50 l-42 -43 10 -60 c6 -33 8 -60 5 -60 -4 0 -24 11 -46
25 -51 31 -66 31 -121 -1 -25 -15 -46 -25 -48 -23 -2 2 1 30 7 63 l11 58 -46
44 c-49 46 -47 54 18 54 51 0 69 13 94 72 l22 52 25 -49 c14 -28 32 -56 41
-62z m-245 5 c-23 -30 -21 -48 8 -84 16 -20 29 -41 29 -47 0 -5 -10 3 -22 18
-12 15 -39 44 -61 65 -47 43 -43 60 15 60 31 0 38 -3 31 -12z m434 -4 c4 -11
-6 -27 -31 -50 -37 -34 -40 -34 -27 1 5 13 3 28 -7 43 -14 21 -13 22 22 22 24
0 39 -5 43 -16z m-353 -262 c18 -9 17 -11 -12 -26 -17 -9 -36 -16 -42 -16 -11
0 -14 49 -3 75 6 16 7 16 22 -2 9 -11 25 -25 35 -31z m260 16 c15 -59 -2 -73
-49 -42 l-24 16 27 24 c34 29 38 29 46 2z"/>
<path d="M2363 2058 c-5 -7 -25 -46 -43 -85 -36 -78 -36 -78 -125 -88 -92 -10
-105 -15 -111 -42 -6 -21 4 -35 61 -93 l68 -68 -17 -90 c-20 -110 -21 -99 8
-117 24 -16 28 -15 108 29 l83 45 88 -47 88 -46 20 20 c20 20 20 23 4 115
l-16 94 65 60 c50 46 66 66 66 87 0 15 -5 30 -11 34 -6 4 -50 12 -98 18 l-86
11 -45 85 c-37 70 -50 86 -71 88 -14 2 -30 -3 -36 -10z m57 -70 c28 -46 27
-61 -5 -46 -19 8 -28 8 -40 -2 -8 -7 -18 -11 -20 -8 -9 9 29 88 42 88 2 0 12
-15 23 -32z m1 -108 c24 -55 42 -70 86 -70 15 0 37 -3 49 -6 19 -5 17 -9 -24
-49 l-46 -43 11 -58 c6 -33 9 -61 8 -62 -2 -2 -23 8 -48 22 -55 32 -68 32
-123 0 -25 -15 -47 -24 -49 -22 -3 2 0 20 5 39 18 61 12 83 -30 124 -44 43
-40 55 18 55 49 0 65 13 92 69 13 28 25 51 26 51 2 0 13 -23 25 -50z m-216
-70 c-14 -28 -14 -31 15 -63 16 -19 30 -41 30 -48 0 -8 -8 -2 -18 13 -10 15
-38 46 -62 68 -24 22 -41 43 -37 46 8 9 70 22 79 17 5 -2 1 -17 -7 -33z m449
21 c7 -10 -29 -57 -53 -70 -15 -9 -17 -6 -13 21 3 22 0 35 -14 45 -16 11 -13
13 28 13 26 0 49 -4 52 -9z m-373 -256 l30 -24 -30 -16 c-41 -21 -51 -19 -51
9 0 26 9 56 17 56 3 0 18 -11 34 -25z m273 9 c10 -27 7 -64 -6 -64 -7 0 -31
12 -53 26 -22 14 -30 22 -18 19 15 -4 28 0 40 14 22 24 29 25 37 5z"/>
<path d="M880 1131 c-6 -11 -10 -87 -10 -175 0 -127 3 -157 16 -170 18 -19 28
-20 55 -6 14 8 19 21 19 53 l0 41 53 -52 c29 -29 60 -52 69 -52 15 0 48 35 48
51 0 3 -32 38 -71 76 l-72 70 49 44 c96 88 93 82 68 117 -22 32 -39 28 -94
-24 l-50 -47 0 35 c0 19 -5 39 -12 46 -18 18 -56 14 -68 -7z m104 -95 c14 5
13 0 -5 -31 l-23 -38 22 -38 c18 -30 19 -37 7 -32 -9 3 -26 -4 -39 -16 -12
-12 -26 -18 -29 -14 -9 8 -9 188 0 196 3 4 16 -2 28 -13 14 -13 28 -18 39 -14z"/>
<path d="M1192 1138 c-8 -8 -12 -63 -12 -180 l0 -168 25 -12 c21 -9 28 -8 46
8 17 16 20 27 17 66 l-5 48 37 0 c43 0 99 33 117 70 28 56 10 120 -46 157 -27
18 -48 23 -100 23 -39 0 -72 -5 -79 -12z m68 -36 c0 -5 -9 -17 -20 -27 -19
-18 -20 -17 -20 3 0 18 11 29 33 31 4 1 7 -3 7 -7z m78 -75 c3 -22 -2 -29 -24
-37 -40 -16 -51 -7 -48 37 1 21 2 39 3 39 1 1 16 -1 34 -5 25 -5 33 -12 35
-34z m-83 -107 c-27 -30 -35 -25 -35 27 l0 48 27 -27 c26 -27 26 -28 8 -48z"/>
<path d="M1565 1136 c-40 -17 -87 -67 -102 -108 -59 -163 113 -312 268 -233
84 44 119 172 71 260 -41 76 -157 116 -237 81z m138 -96 c52 -41 44 -136 -14
-165 -73 -38 -149 6 -149 85 0 84 97 132 163 80z"/>
<path d="M1872 1138 c-8 -8 -12 -62 -12 -178 0 -171 4 -190 42 -190 30 0 51
44 43 90 l-7 40 37 0 c97 0 164 98 122 180 -23 46 -73 70 -146 70 -39 0 -72
-5 -79 -12z m68 -36 c0 -5 -9 -17 -20 -27 -19 -18 -20 -17 -20 3 0 18 11 29
33 31 4 1 7 -3 7 -7z m78 -75 c3 -22 -2 -29 -24 -37 -39 -15 -54 -6 -54 33 0
43 4 46 43 38 25 -5 33 -12 35 -34z m-83 -107 c-27 -30 -35 -25 -35 27 l0 48
27 -27 c26 -27 26 -28 8 -48z"/>
<path d="M1998 583 c17 -2 47 -2 65 0 17 2 3 4 -33 4 -36 0 -50 -2 -32 -4z"/>
</g>
</svg>
